<svg aria-hidden="true" style="position: absolute; width: 0; height: 0; overflow: hidden;" version="1.1" xmlns="http://www.w3.org/2000/svg" xmlns:xlink="http://www.w3.org/1999/xlink">
<defs>
<symbol id="close-black-18dp-2-1" viewBox="0 0 8 8">
<path d="M8 0.806l-0.806-0.806-3.194 3.194-3.194-3.194-0.806 0.806 3.194 3.194-3.194 3.194 0.806 0.806 3.194-3.194 3.194 3.194 0.806-0.806-3.194-3.194 3.194-3.194z"></path>
</symbol>
<symbol id="close" viewBox="0 0 8 8">
<path fill="#e7e9fc" style="fill: var(--color1, #e7e9fc)" d="M8 4c0 2.209-1.791 4-4 4s-4-1.791-4-4c0-2.209 1.791-4 4-4s4 1.791 4 4z"></path>
<path fill="none" stroke="#000" style="stroke: var(--color2, #000)" stroke-linejoin="miter" stroke-linecap="butt" stroke-miterlimit="4" stroke-width="0.3333" d="M7.833 4c0 2.117-1.716 3.833-3.833 3.833s-3.833-1.716-3.833-3.833c0-2.117 1.716-3.833 3.833-3.833s3.833 1.716 3.833 3.833z"></path>
<path fill="#000" style="fill: var(--color2, #000)" d="M5.333 2.935l-0.269-0.269-1.065 1.065-1.065-1.065-0.269 0.269 1.065 1.065-1.065 1.065 0.269 0.269 1.065-1.065 1.065 1.065 0.269-0.269-1.065-1.065 1.065-1.065z"></path>
</symbol>
</defs>
</svg>
