<svg xmlns="http://www.w3.org/2000/svg" aria-hidden="true" style="position:absolute;width:0;height:0;overflow:hidden"><defs>
<symbol id="telegram" viewBox="0 0 24 24"><path d="M24 2 0 13.25l7.67 2.367L19.5 6.375l-8.998 10.116.007.002-.009-.002V22l4.301-4.182L20.25 19.5 24 2z"/></symbol>
<symbol id="phone" viewBox="0 0 24 24"><path d="m21.649 16.366-3.394-.387a2.656 2.656 0 0 0-2.191.762l-2.458 2.458a20.097 20.097 0 0 1-8.804-8.804l2.472-2.472a2.662 2.662 0 0 0 .762-2.191l-.387-3.367A2.674 2.674 0 0 0 4.99 0H2.679C1.169 0-.087 1.256.007 2.766c.708 11.41 9.833 20.521 21.229 21.229 1.51.094 2.766-1.162 2.766-2.672v-2.311a2.648 2.648 0 0 0-2.351-2.645z"/></symbol>
<symbol id="message" viewBox="0 0 32 24"><path d="M28 0H4a2.996 2.996 0 0 0-2.985 3L1 21c0 1.65 1.35 3 3 3h24c1.65 0 3-1.35 3-3V3c0-1.65-1.35-3-3-3zm-.6 6.375-10.605 6.63c-.48.3-1.11.3-1.59 0L4.6 6.375c-.375-.24-.6-.645-.6-1.08C4 4.29 5.095 3.69 5.95 4.215L16 10.5l10.05-6.285c.855-.525 1.95.075 1.95 1.08 0 .435-.225.84-.6 1.08z"/></symbol>
<symbol id="name" viewBox="0 0 24 24"><path d="M12 12c3.315 0 6-2.685 6-6s-2.685-6-6-6-6 2.685-6 6 2.685 6 6 6zm0 3c-4.005 0-12 2.01-12 6v1.5c0 .825.675 1.5 1.5 1.5h21c.825 0 1.5-.675 1.5-1.5V21c0-3.99-7.995-6-12-6z"/></symbol></defs></svg>